<svg width="426" height="414" viewBox="0 0 426 414" fill="none" xmlns="http://www.w3.org/2000/svg">
<path d="M416.582 343.533L416.581 343.535C407.193 360.421 390.132 374.162 368.387 384.853C346.647 395.541 320.264 403.161 292.293 407.825C236.344 417.154 174.13 414.644 130.163 401.3C86.104 387.879 54.1801 356.288 33.032 318.167C11.882 280.043 1.52696 235.416 0.601089 195.996C-0.93336 117.386 46.6073 39.0933 109.691 10.5256C141.337 -3.63771 171.762 -0.985926 202.373 13.4478C233.008 27.8928 263.814 54.1333 296.161 87.128C328.341 120.018 367.97 167.274 394.785 214.766C408.192 238.512 418.383 262.296 422.847 284.357C427.311 306.418 426.039 326.713 416.582 343.533Z" stroke="#E5E5E5"/>
</svg>
