<svg width="83" height="83" viewBox="0 0 83 83" fill="none" xmlns="http://www.w3.org/2000/svg">
<path fill-rule="evenodd" clip-rule="evenodd" d="M76.0833 0H6.91663V83H55.3333L76.0833 62.25V0ZM51.875 79.5417H10.375V3.45833H72.625V58.7917H51.875V79.5417ZM55.3333 62.25H71.1932L55.3333 78.1099V62.25V62.25ZM44.9583 65.7083H17.2916V69.1667H44.9583V65.7083ZM44.9583 55.3333H17.2916V58.7917H44.9583V55.3333ZM65.7083 48.4167V44.9583H17.2916V48.4167H65.7083ZM65.7083 34.5833H51.875V38.0417H65.7083V34.5833ZM44.9375 38.0417H17.302L17.2916 35.313C17.2813 32.823 17.2709 29.7278 21.8359 28.673C26.9646 27.4938 26.1104 27.2275 25.8406 26.726C22.1125 19.8508 23.3852 15.7527 24.4746 13.9198C25.8164 11.6684 28.2407 10.375 31.125 10.375C33.985 10.375 36.392 11.6477 37.7304 13.8714C39.6152 16.9977 39.1448 21.5558 36.4197 26.7122C36.0565 27.39 35.7453 27.594 40.2895 28.6454C44.9756 29.7244 44.9652 32.8369 44.9583 35.3407L44.9375 38.0417ZM20.75 34.5833H41.5C41.4758 32.6916 41.2579 32.4184 39.6325 32.0449C36.6756 31.3602 33.9988 30.7446 33.0582 28.6834C32.5671 27.6079 32.6674 26.4009 33.359 25.0902C35.4686 21.1097 35.9805 17.6686 34.7666 15.6524C33.8121 14.0685 32.076 13.8333 31.125 13.8333C29.465 13.8333 28.1612 14.4904 27.4488 15.6905C26.2314 17.7309 26.7536 21.1546 28.8805 25.0764C29.586 26.3802 29.6967 27.5906 29.209 28.6696C28.2788 30.7377 25.6262 31.3463 22.8215 31.9965C21.0059 32.415 20.7707 32.6951 20.75 34.5833V34.5833ZM65.7083 27.6667V24.2083H51.875V27.6667H65.7083ZM65.7083 13.8333H51.875V17.2917H65.7083V13.8333Z" fill="white" fill-opacity="0.6"/>
</svg>
