<svg width="50" height="50" viewBox="0 0 50 50" fill="none" xmlns="http://www.w3.org/2000/svg">
<path fill-rule="evenodd" clip-rule="evenodd" d="M45.8333 0H4.16663V50H33.3333L45.8333 37.5V0ZM31.25 47.9167H6.24996V2.08333H43.75V35.4167H31.25V47.9167ZM33.3333 37.5H42.8875L33.3333 47.0542V37.5V37.5ZM27.0833 39.5833H10.4166V41.6667H27.0833V39.5833ZM27.0833 33.3333H10.4166V35.4167H27.0833V33.3333ZM39.5833 29.1667V27.0833H10.4166V29.1667H39.5833ZM39.5833 20.8333H31.25V22.9167H39.5833V20.8333ZM27.0708 22.9167H10.4229L10.4166 21.2729C10.4104 19.7729 10.4041 17.9083 13.1541 17.2729C16.2437 16.5625 15.7291 16.4021 15.5666 16.1C13.3208 11.9583 14.0875 9.48958 14.7437 8.38542C15.552 7.02917 17.0125 6.25 18.75 6.25C20.4729 6.25 21.9229 7.01667 22.7291 8.35625C23.8645 10.2396 23.5812 12.9854 21.9395 16.0917C21.7208 16.5 21.5333 16.6229 24.2708 17.2562C27.0937 17.9062 27.0875 19.7812 27.0833 21.2896L27.0708 22.9167ZM12.5 20.8333H25C24.9854 19.6937 24.8541 19.5292 23.875 19.3042C22.0937 18.8917 20.4812 18.5208 19.9145 17.2792C19.6187 16.6312 19.6791 15.9042 20.0958 15.1146C21.3666 12.7167 21.675 10.6437 20.9437 9.42917C20.3687 8.475 19.3229 8.33333 18.75 8.33333C17.75 8.33333 16.9645 8.72917 16.5354 9.45208C15.802 10.6812 16.1166 12.7437 17.3979 15.1062C17.8229 15.8917 17.8895 16.6208 17.5958 17.2708C17.0354 18.5167 15.4375 18.8833 13.7479 19.275C12.6541 19.5271 12.5125 19.6958 12.5 20.8333V20.8333ZM39.5833 16.6667V14.5833H31.25V16.6667H39.5833ZM39.5833 8.33333H31.25V10.4167H39.5833V8.33333Z" fill="white" fill-opacity="0.6"/>
</svg>
