<svg width="132" height="110" viewBox="0 0 132 110" fill="none" xmlns="http://www.w3.org/2000/svg">
<path d="M98.5704 12.0664L98.2998 11.8614L98.0094 12.0374L66 31.4354L33.9906 12.0374L33.7002 11.8614L33.4296 12.0664L10.6981 29.2864L10.5 29.4365V29.685V55.315V55.5635L10.6981 55.7135L65.6981 97.3835L66 97.6123L66.3019 97.3836L121.302 55.7186L121.5 55.5685V55.32V29.685V29.4365L121.302 29.2864L98.5704 12.0664ZM65.7409 20.4276L66 20.5847L66.2591 20.4276L98.9687 0.6036L131.5 25.2485V59.7515L66 109.373L0.5 59.7515V25.2485L33.0313 0.603603L65.7409 20.4276Z" fill="rgba(255,255,255,60%)" stroke="black"/>
</svg>
