<svg width="231" height="184" viewBox="0 0 231 184" fill="none" xmlns="http://www.w3.org/2000/svg">
<path d="M114.924 69.8764C114.881 69.443 114.484 69.167 114.003 69.208C110.839 69.5616 107.852 70.0726 105.085 70.782C106.139 66.6097 107.15 62.7134 108.028 59.4854C109.522 53.8986 109.258 50.9079 107.15 50.3171C104.604 49.6077 101.134 53.6614 99.7722 56.8893C98.2779 60.5485 99.1129 63.4228 102.012 64.5634C102.45 64.7596 102.934 64.5634 103.11 64.2098C103.329 63.8152 103.11 63.3818 102.715 63.1856C99.9046 62.0837 100.694 59.093 101.396 57.4004C102.802 54.015 105.658 51.4965 106.669 51.7725C107.106 51.8911 107.898 53.4652 106.361 59.1318C105.437 62.5948 104.339 66.8059 103.199 71.2931C99.2019 72.4725 95.6431 74.0876 92.5703 76.095C87.7819 79.2022 84.2254 83.2559 82.0742 88.0579C78.1641 96.6764 79.6584 105.963 83.3038 109.94C85.0171 111.79 86.9926 112.734 89.0115 112.734C89.4085 112.734 89.8464 112.693 90.2868 112.615C93.3596 111.947 95.7321 108.799 96.9184 103.801C97.751 100.336 101.31 85.5394 104.647 72.4337C107.458 71.6855 110.62 71.0969 114.178 70.7023C114.66 70.6634 115.011 70.3098 114.924 69.8764ZM95.2918 103.486C94.2378 107.893 92.3056 110.608 89.8464 111.16C88.1332 111.514 86.2467 110.727 84.6201 108.995C80.4043 104.389 80.8446 94.8264 83.6094 88.6099C86.1143 83.1395 91.384 76.6061 102.758 72.9857C99.5099 85.8542 96.0834 100.101 95.2918 103.486Z" fill="#C21926"/>
<path d="M151.064 72.3951C150.932 72.0005 150.448 71.7655 150.01 71.9229C147.549 72.6301 144.081 73.5746 139.995 74.6764C142.236 64.2876 144.562 53.584 145.749 49.4116C145.838 49.017 145.573 48.5858 145.135 48.506C144.695 48.3874 144.211 48.6246 144.124 49.017C142.895 53.3468 140.436 64.4838 138.152 75.1508C137.844 75.2284 137.536 75.347 137.185 75.4246C131.872 76.8413 125.721 78.5339 119.838 80.1878C121.2 74.2451 122.824 67.1597 124.8 58.7784L125.019 57.9525C125.721 54.882 125.503 53.1894 124.316 52.5209C123.308 52.0099 121.903 52.4023 120.19 53.7414C116.104 56.9283 109.604 65.9414 111.45 69.9154C111.888 70.8598 112.942 71.9617 115.622 71.8043C116.104 71.7655 116.455 71.4118 116.412 70.9784C116.368 70.5838 115.974 70.269 115.533 70.269C113.515 70.3876 113.118 69.6006 112.988 69.3246C112.415 68.0265 113.163 65.3894 115.05 62.2801C116.806 59.3692 119.268 56.4949 121.287 54.9208C122.692 53.819 123.351 53.7802 123.438 53.8578C123.484 53.8578 124.141 54.33 123.351 57.6377L123.176 58.4636C122.341 61.9265 120.19 71.0172 117.993 80.6988C114.963 81.5635 111.977 82.3915 109.296 83.2173C104.643 84.5951 101.173 85.7358 98.7137 86.6802C94.7603 88.1767 94.0143 88.8839 94.0576 89.671C94.101 90.0655 94.3656 90.6154 95.5519 90.8138C95.5952 90.8138 95.6385 90.8138 95.6819 90.8138C96.0789 90.8138 96.4302 90.5766 96.5168 90.223C96.6059 89.9081 96.4302 89.5933 96.1655 89.4359C97.3085 88.8063 100.689 87.3487 110.791 84.358C112.942 83.7283 115.225 83.0599 117.598 82.3915C117.158 84.3191 116.72 86.2878 116.279 88.2155C114.744 95.0637 113.558 100.454 112.812 104.312C112.372 106.554 112.02 108.286 111.845 109.467C111.58 111.199 111.45 112.064 112.372 112.301C112.461 112.34 112.547 112.34 112.636 112.34C113.339 112.34 113.645 111.553 113.996 110.727C114.128 110.332 113.909 109.94 113.515 109.782C113.909 107.027 115.314 99.9045 119.444 81.8804C125.635 80.1468 132.091 78.3765 137.669 76.8822C137.712 76.8413 137.755 76.8413 137.801 76.8413C137.228 79.4784 136.701 82.0766 136.174 84.4766C134.858 90.8138 133.715 96.2432 133.188 98.4081C133.101 98.8415 133.364 99.2339 133.847 99.3137C133.891 99.3137 133.98 99.3137 134.023 99.3137C134.418 99.3137 134.769 99.0765 134.858 98.7229C135.342 96.558 136.439 91.3636 137.844 84.7526C138.414 82.1155 139.03 79.2433 139.644 76.3302C144.081 75.1508 147.9 74.1265 150.537 73.3395C150.975 73.2209 151.24 72.7875 151.064 72.3951Z" fill="#C21926"/>
</svg>
