<svg width="195" height="175" viewBox="0 0 195 175" fill="none" xmlns="http://www.w3.org/2000/svg">
<path d="M97.0142 78.5188C96.9777 78.1524 96.6425 77.9191 96.2362 77.9537C93.5652 78.2527 91.0444 78.6847 88.7084 79.2844C89.5981 75.7571 90.4512 72.4631 91.1927 69.7342C92.4541 65.011 92.2306 62.4826 90.4512 61.9831C88.3022 61.3834 85.3731 64.8105 84.2234 67.5394C82.962 70.6329 83.6669 73.0628 86.1145 74.0272C86.4842 74.193 86.8925 74.0272 87.0408 73.7282C87.2256 73.3946 87.0408 73.0282 86.7077 72.8623C84.3352 71.9308 85.0014 69.4024 85.5945 67.9714C86.7808 65.1094 89.1919 62.9803 90.045 63.2136C90.4147 63.3139 91.083 64.6446 89.785 69.4352C89.005 72.3628 88.0787 75.923 87.1159 79.7165C83.742 80.7136 80.7378 82.079 78.1439 83.7761C74.1017 86.4029 71.0995 89.83 69.2836 93.8897C65.9828 101.176 67.2442 109.027 70.3216 112.389C71.7678 113.953 73.4355 114.751 75.1397 114.751C75.4748 114.751 75.8445 114.716 76.2162 114.651C78.8101 114.086 80.813 111.424 81.8144 107.199C82.5172 104.269 85.5214 91.7605 88.3387 80.6808C90.7112 80.0483 93.3803 79.5506 96.3845 79.217C96.7908 79.1842 97.0873 78.8852 97.0142 78.5188ZM80.4412 106.933C79.5516 110.659 77.9205 112.954 75.8445 113.42C74.3983 113.719 72.8058 113.054 71.4326 111.59C67.8739 107.696 68.2456 99.6118 70.5795 94.3563C72.6941 89.7316 77.1425 84.2081 86.7442 81.1475C84.002 92.0266 81.1095 104.071 80.4412 106.933Z" fill="#C21926"/>
<path d="M127.522 80.6478C127.41 80.3142 127.002 80.1155 126.632 80.2486C124.554 80.8465 121.627 81.6449 118.178 82.5764C120.069 73.7936 122.033 64.7447 123.035 61.2173C123.11 60.8837 122.886 60.5191 122.517 60.4517C122.145 60.3514 121.737 60.552 121.664 60.8837C120.626 64.5441 118.55 73.9595 116.622 82.9775C116.362 83.0431 116.102 83.1434 115.805 83.209C111.32 84.4066 106.129 85.8376 101.162 87.2358C102.312 82.2118 103.683 76.2217 105.351 69.1361L105.536 68.4379C106.129 65.8421 105.944 64.4111 104.942 63.846C104.091 63.4139 102.905 63.7457 101.459 64.8777C98.0097 67.572 92.5233 75.1918 94.0813 78.5514C94.451 79.3499 95.3407 80.2814 97.6035 80.1483C98.0097 80.1155 98.3063 79.8165 98.2697 79.4501C98.2332 79.1165 97.9 78.8504 97.5283 78.8504C95.8241 78.9506 95.4889 78.2853 95.3793 78.052C94.8958 76.9546 95.5275 74.7251 97.12 72.0965C98.6028 69.6355 100.681 67.2056 102.385 65.8749C103.571 64.9434 104.128 64.9105 104.201 64.9762C104.24 64.9762 104.794 65.3754 104.128 68.1717L103.98 68.8699C103.275 71.7975 101.459 79.4829 99.6043 87.6678C97.0469 88.3988 94.5261 89.0988 92.2633 89.797C88.3349 90.9618 85.4058 91.9262 83.3299 92.7246C79.9925 93.9897 79.3629 94.5876 79.3994 95.253C79.436 95.5866 79.6594 96.0514 80.6608 96.2191C80.6974 96.2191 80.7339 96.2191 80.7705 96.2191C81.1057 96.2191 81.4022 96.0186 81.4754 95.7197C81.5505 95.4535 81.4022 95.1874 81.1788 95.0543C82.1436 94.522 84.9975 93.2897 93.5247 90.7613C95.3407 90.229 97.2683 89.6639 99.2711 89.0988C98.8994 90.7285 98.5297 92.3928 98.158 94.0225C96.8621 99.8121 95.8607 104.369 95.231 107.631C94.8593 109.526 94.5627 110.99 94.4144 111.989C94.191 113.453 94.0813 114.184 94.8593 114.385C94.9344 114.417 95.0075 114.417 95.0827 114.417C95.6758 114.417 95.9338 113.752 96.2303 113.054C96.3421 112.72 96.1572 112.388 95.8241 112.255C96.1572 109.926 97.3435 103.905 100.829 88.6668C106.056 87.2012 111.505 85.7046 116.214 84.4413C116.25 84.4066 116.287 84.4066 116.325 84.4066C115.842 86.6361 115.397 88.8327 114.952 90.8616C113.841 96.2191 112.876 100.809 112.432 102.639C112.358 103.006 112.58 103.338 112.988 103.405C113.025 103.405 113.1 103.405 113.136 103.405C113.47 103.405 113.766 103.205 113.841 102.906C114.25 101.075 115.176 96.684 116.362 91.0949C116.843 88.8655 117.363 86.4374 117.881 83.9746C121.627 82.9775 124.851 82.1116 127.077 81.4462C127.447 81.346 127.67 80.9796 127.522 80.6478Z" fill="#C21926"/>
</svg>
