<svg width="164" height="168" viewBox="0 0 164 168" fill="none" xmlns="http://www.w3.org/2000/svg">
<path fill-rule="evenodd" clip-rule="evenodd" d="M7.50001 7.5H161.151V3H3.00001V7.5L3 165.651H7.5L7.50001 7.5Z" fill="#C21926"/>
<path d="M161.151 7.5V9.75H163.401V7.5H161.151ZM7.50001 7.5V5.25H5.25001L5.25001 7.5L7.50001 7.5ZM161.151 3H163.401V0.75H161.151V3ZM3.00001 3V0.75H0.750007V3H3.00001ZM3.00001 7.5L5.25001 7.5V7.5H3.00001ZM3 165.651L0.75 165.651L0.75 167.901H3V165.651ZM7.5 165.651V167.901H9.75L9.75 165.651L7.5 165.651ZM161.151 5.25H7.50001V9.75H161.151V5.25ZM158.901 3V7.5H163.401V3H158.901ZM3.00001 5.25H161.151V0.75H3.00001V5.25ZM5.25001 7.5V3H0.750007V7.5H5.25001ZM5.25 165.651L5.25001 7.5L0.750007 7.5L0.75 165.651L5.25 165.651ZM7.5 163.401H3V167.901H7.5V163.401ZM5.25001 7.5L5.25 165.651L9.75 165.651L9.75001 7.5L5.25001 7.5Z" fill="#C21926" fill-opacity="0.04"/>
</svg>
