<svg width="168" height="163" viewBox="0 0 168 163" fill="none" xmlns="http://www.w3.org/2000/svg">
<path fill-rule="evenodd" clip-rule="evenodd" d="M161.026 156.151L161.026 2.49987H165.526L165.526 160.651H161.026L2.87488 160.651V156.151L161.026 156.151Z" fill="#C21926"/>
<path d="M161.026 2.49987H158.776V0.249873H161.026V2.49987ZM161.026 156.151H163.276V158.401L161.026 158.401L161.026 156.151ZM165.526 2.49987V0.249873H167.776V2.49987H165.526ZM165.526 160.651H167.776V162.901H165.526V160.651ZM161.026 160.651L161.026 158.401H161.026V160.651ZM2.87488 160.651L2.87488 162.901L0.624882 162.901V160.651H2.87488ZM2.87488 156.151H0.624882V153.901L2.87488 153.901L2.87488 156.151ZM163.276 2.49987L163.276 156.151H158.776L158.776 2.49987H163.276ZM165.526 4.74987H161.026V0.249873H165.526V4.74987ZM163.276 160.651L163.276 2.49987H167.776L167.776 160.651H163.276ZM161.026 158.401H165.526V162.901H161.026V158.401ZM2.87488 158.401L161.026 158.401L161.026 162.901L2.87488 162.901L2.87488 158.401ZM5.12488 156.151V160.651H0.624882V156.151H5.12488ZM161.026 158.401L2.87488 158.401L2.87488 153.901L161.026 153.901L161.026 158.401Z" fill="#C21926" fill-opacity="0.04"/>
</svg>
